<svg width="16" height="12" viewBox="0 0 16 12" fill="none" xmlns="http://www.w3.org/2000/svg">
<path d="M15.3506 2.92813C15.3506 2.92813 15.2041 1.825 14.7529 1.34063C14.1816 0.703125 13.543 0.7 13.25 0.6625C11.1523 0.5 8.00293 0.5 8.00293 0.5H7.99707C7.99707 0.5 4.84766 0.5 2.75 0.6625C2.45703 0.7 1.81836 0.703125 1.24707 1.34063C0.795898 1.825 0.652344 2.92813 0.652344 2.92813C0.652344 2.92813 0.5 4.225 0.5 5.51875V6.73125C0.5 8.025 0.649414 9.32188 0.649414 9.32188C0.649414 9.32188 0.795898 10.425 1.24414 10.9094C1.81543 11.5469 2.56543 11.525 2.89941 11.5938C4.10059 11.7156 8 11.7531 8 11.7531C8 11.7531 11.1523 11.7469 13.25 11.5875C13.543 11.55 14.1816 11.5469 14.7529 10.9094C15.2041 10.425 15.3506 9.32188 15.3506 9.32188C15.3506 9.32188 15.5 8.02812 15.5 6.73125V5.51875C15.5 4.225 15.3506 2.92813 15.3506 2.92813ZM6.4502 8.20312V3.70625L10.502 5.9625L6.4502 8.20312Z" fill="#373334"/>
</svg>
